Coordinates
version=1
nRows=34
nColumns=38
inDegrees=no

Units are S.I. units (second, meters, Newtons, ...)
If the header above contains a line with 'inDegrees', this indicates whether rotational values are in degrees (yes) or radians (no).

endheader
time	pelvis_tilt	pelvis_list	pelvis_rotation	pelvis_tx	pelvis_ty	pelvis_tz	hip_flexion_r	hip_adduction_r	hip_rotation_r	knee_angle_r	ankle_angle_r	subtalar_angle_r	mtp_angle_r	hip_flexion_l	hip_adduction_l	hip_rotation_l	knee_angle_l	ankle_angle_l	subtalar_angle_l	mtp_angle_l	lumbar_extension	lumbar_bending	lumbar_rotation	arm_flex_r	arm_add_r	arm_rot_r	elbow_flex_r	pro_sup_r	wrist_flex_r	wrist_dev_r	arm_flex_l	arm_add_l	arm_rot_l	elbow_flex_l	pro_sup_l	wrist_flex_l	wrist_dev_l
0.57	-2.3734	1.39443	-2.51745	0.637485	0.194753	0.925804	-0.343348	-0.231927	-0.189289	0.42643	0.328004	0	0	0.393119	0.0606864	-0.307992	0.321354	0.144205	0	0	-0.1906	-0.133915	0.13665	0.019451	-0.204674	0.19133	0.572355	1.04793	0	0	-0.249198	-0.169271	0.163736	0.645514	0.939519	0	0
0.58	-2.35241	1.39447	-2.54533	0.636605	0.209512	0.924107	-0.337559	-0.244576	-0.182319	0.457242	0.318441	0	0	0.398135	0.0635743	-0.304162	0.351931	0.149651	0	0	-0.179257	-0.137368	0.145566	0.0111565	-0.204292	0.189977	0.57163	1.05208	0	0	-0.259513	-0.168286	0.160752	0.644055	0.939209	0	0
0.59	-2.32365	1.39572	-2.57992	0.635463	0.22443	0.922248	-0.326079	-0.257882	-0.175567	0.494839	0.306435	0	0	0.404226	0.0668813	-0.302514	0.377737	0.145105	0	0	-0.165338	-0.13996	0.153265	0.00200937	-0.20446	0.188838	0.571165	1.05595	0	0	-0.271142	-0.167095	0.156444	0.64391	0.93752	0	0
0.6	-2.29168	1.39634	-2.61466	0.633912	0.239144	0.920603	-0.311315	-0.271519	-0.169532	0.537693	0.289374	0	0	0.410427	0.071661	-0.30014	0.39906	0.119896	0	0	-0.15249	-0.142893	0.156941	-0.00586972	-0.204355	0.187894	0.570079	1.05906	0	0	-0.282746	-0.166037	0.151032	0.645235	0.934614	0	0
0.61	-2.25522	1.39477	-2.64929	0.631893	0.253332	0.91948	-0.293234	-0.286184	-0.164978	0.586539	0.264817	0	0	0.418993	0.0786836	-0.296072	0.423058	0.0849503	0	0	-0.142727	-0.148131	0.15523	-0.0113871	-0.203146	0.186749	0.567388	1.06031	0	0	-0.292172	-0.165816	0.146598	0.646457	0.930762	0	0
0.62	-2.21089	1.3913	-2.68729	0.629576	0.267037	0.918897	-0.270233	-0.301742	-0.161443	0.641902	0.231239	0	0	0.431985	0.0874732	-0.289605	0.456228	0.0621656	0	0	-0.134625	-0.156004	0.14917	-0.0155588	-0.200221	0.184368	0.5629	1.06017	0	0	-0.298725	-0.167217	0.144817	0.646691	0.924244	0	0
0.63	-2.16443	1.38836	-2.72468	0.627252	0.280572	0.918665	-0.242351	-0.314994	-0.155751	0.701864	0.189341	0	0	0.448082	0.0951563	-0.282144	0.497358	0.056887	0	0	-0.126324	-0.163459	0.140897	-0.0197293	-0.196312	0.180498	0.557727	1.06022	0	0	-0.303805	-0.17083	0.148815	0.64681	0.910035	0	0
0.64	-2.12458	1.38787	-2.75647	0.625265	0.294015	0.918583	-0.209708	-0.323154	-0.142925	0.76518	0.141306	0	0	0.463877	0.09783	-0.279124	0.540259	0.0595484	0	0	-0.117182	-0.167702	0.134668	-0.0260911	-0.196246	0.192104	0.558814	1.02653	0	0	-0.308906	-0.181151	0.178403	0.6532	0.843835	0	0
0.65	-2.13528	1.39386	-2.74167	0.623951	0.308275	0.918513	-0.183327	-0.317882	-0.122656	0.823743	0.0903952	0	0	0.483846	0.0664282	-0.33283	0.616124	0.06904	0	0	-0.111818	-0.160983	0.131941	-0.034972	-0.197547	0.195846	0.562588	1.01984	0	0	-0.315556	-0.184036	0.183601	0.65491	0.839708	0	0
0.66	-2.08923	1.38128	-2.77881	0.62188	0.320804	0.919731	-0.149784	-0.337277	-0.111166	0.887858	0.0366403	0	0	0.464459	0.108877	-0.279035	0.586456	0.0521532	0	0	-0.109226	-0.178354	0.12221	-0.0365164	-0.191643	0.193761	0.557083	1.02188	0	0	-0.315486	-0.190736	0.188507	0.653463	0.835168	0	0
0.67	-2.08637	1.38845	-2.77906	0.620621	0.334445	0.919457	-0.114521	-0.330388	-0.0895183	0.948295	-0.0196766	0	0	0.478149	0.0786229	-0.336657	0.64576	0.0636585	0	0	-0.100992	-0.171025	0.120975	-0.0464787	-0.194944	0.200076	0.564708	1.01184	0	0	-0.321934	-0.199386	0.213912	0.662927	0.78265	0	0
0.68	-2.06769	1.38567	-2.79173	0.618836	0.34698	0.920117	-0.0800948	-0.335302	-0.0743761	1.00648	-0.0745907	0	0	0.469317	0.0863334	-0.340637	0.652309	0.0708277	0	0	-0.097599	-0.175148	0.11333	-0.0502248	-0.193345	0.197878	0.565061	1.01912	0	0	-0.323738	-0.200771	0.205988	0.661356	0.803998	0	0
0.69	-2.05251	1.38281	-2.80073	0.617031	0.359184	0.920957	-0.0463358	-0.339945	-0.061178	1.06101	-0.132924	0	0	0.457589	0.0954112	-0.343431	0.654577	0.0823961	0	0	-0.0950374	-0.178904	0.105045	-0.0532026	-0.192778	0.199845	0.565768	1.01675	0	0	-0.325057	-0.204701	0.208174	0.663251	0.796569	0	0
0.7	-2.04471	1.37995	-2.80184	0.61522	0.371112	0.92214	-0.014998	-0.344005	-0.0506583	1.11036	-0.19168	0	0	0.442787	0.106102	-0.342331	0.652368	0.091807	0	0	-0.0943476	-0.181955	0.0959411	-0.0547908	-0.192533	0.20267	0.56473	1.0158	0	0	-0.324507	-0.208361	0.210279	0.663701	0.789909	0	0
0.71	-2.04369	1.37716	-2.79553	0.613407	0.38278	0.923734	0.0134899	-0.347264	-0.0428169	1.15433	-0.245081	0	0	0.425622	0.118655	-0.335446	0.646432	0.0976084	0	0	-0.0954996	-0.184447	0.0862306	-0.0553345	-0.192095	0.205212	0.56172	1.01535	0	0	-0.321952	-0.21191	0.212693	0.662738	0.783492	0	0
0.72	-2.04847	1.37484	-2.78317	0.611677	0.394261	0.925727	0.0399982	-0.349325	-0.0369161	1.19522	-0.280609	0	0	0.406635	0.131742	-0.323653	0.638505	0.102534	0	0	-0.0978396	-0.186104	0.0767831	-0.055694	-0.191288	0.206594	0.557614	1.01476	0	0	-0.317676	-0.215237	0.215212	0.660304	0.778847	0	0
0.73	-2.05686	1.37284	-2.76656	0.61004	0.405628	0.92804	0.0656944	-0.352927	-0.0361075	1.23473	-0.290971	0	0	0.385771	0.144844	-0.308533	0.628681	0.107681	0	0	-0.100794	-0.18717	0.066638	-0.0560193	-0.192285	0.217912	0.555121	0.99305	0	0	-0.31224	-0.217923	0.215478	0.655756	0.782785	0	0
0.74	-2.07338	1.37127	-2.74156	0.608549	0.416959	0.930772	0.0879636	-0.35436	-0.0361362	1.26906	-0.279193	0	0	0.361562	0.156391	-0.292803	0.616287	0.112653	0	0	-0.105435	-0.187132	0.0575384	-0.0570265	-0.187631	0.199304	0.547619	1.0351	0	0	-0.305394	-0.222775	0.223636	0.653138	0.774552	0	0
0.75	-2.09685	1.37114	-2.70971	0.60715	0.42823	0.933728	0.107828	-0.351925	-0.0361129	1.29759	-0.255783	0	0	0.335903	0.164188	-0.278639	0.603941	0.117806	0	0	-0.110663	-0.184784	0.0479577	-0.0592314	-0.186863	0.197873	0.545994	1.03716	0	0	-0.29935	-0.225757	0.224807	0.65148	0.776967	0	0
0.76	-2.11911	1.37216	-2.67929	0.60584	0.439373	0.936651	0.128103	-0.349306	-0.0389589	1.32144	-0.229372	0	0	0.310371	0.169496	-0.265837	0.590694	0.122818	0	0	-0.114946	-0.181254	0.038969	-0.0626687	-0.186392	0.195388	0.546395	1.03918	0	0	-0.293707	-0.228582	0.224144	0.651927	0.779378	0	0
0.77	-2.13797	1.37423	-2.65231	0.604552	0.450344	0.939427	0.149645	-0.348479	-0.0461089	1.34089	-0.206312	0	0	0.285802	0.172924	-0.254387	0.576638	0.127551	0	0	-0.118068	-0.176831	0.0300931	-0.0666465	-0.186378	0.192669	0.548081	1.04132	0	0	-0.288418	-0.231298	0.222237	0.654358	0.781575	0	0
0.78	-2.15373	1.37774	-2.62873	0.603299	0.461076	0.94205	0.172735	-0.343091	-0.0492608	1.35578	-0.187577	0	0	0.263029	0.174062	-0.244788	0.562643	0.131752	0	0	-0.119959	-0.171257	0.02172	-0.0706278	-0.186658	0.189716	0.549794	1.04314	0	0	-0.283013	-0.233772	0.220626	0.657502	0.78394	0	0
0.79	-2.16801	1.38138	-2.60632	0.602024	0.471664	0.944563	0.195786	-0.337046	-0.0522506	1.36594	-0.173303	0	0	0.240571	0.174711	-0.235775	0.547692	0.135514	0	0	-0.121507	-0.165624	0.0131944	-0.0748235	-0.186902	0.185511	0.551843	1.04427	0	0	-0.277748	-0.236052	0.217833	0.662055	0.787393	0	0
0.8	-2.1798	1.38492	-2.58601	0.600735	0.482137	0.946929	0.218803	-0.332124	-0.0565257	1.37192	-0.16273	0	0	0.218539	0.175208	-0.227401	0.532288	0.139153	0	0	-0.122638	-0.160378	0.00411777	-0.0783436	-0.187201	0.182728	0.552672	1.04298	0	0	-0.272768	-0.238342	0.212579	0.668439	0.790218	0	0
0.81	-2.19015	1.38802	-2.56657	0.599413	0.49251	0.949152	0.240823	-0.328658	-0.0624632	1.3736	-0.153573	0	0	0.196185	0.175892	-0.21935	0.516158	0.142641	0	0	-0.123838	-0.155699	-0.0056537	-0.0812822	-0.187592	0.181669	0.552535	1.03771	0	0	-0.267818	-0.24086	0.206792	0.675764	0.79387	0	0
0.82	-2.20141	1.39018	-2.54519	0.598049	0.502784	0.951294	0.260782	-0.327096	-0.0705952	1.37103	-0.145243	0	0	0.172196	0.177391	-0.210211	0.498021	0.145577	0	0	-0.126339	-0.151718	-0.015898	-0.0831284	-0.182281	0.153916	0.545831	1.08371	0	0	-0.262108	-0.24454	0.2045	0.68429	0.79062	0	0
0.83	-2.21717	1.39185	-2.51815	0.596573	0.512937	0.953342	0.277962	-0.326301	-0.0809964	1.3643	-0.136144	0	0	0.147113	0.178628	-0.19978	0.479614	0.148636	0	0	-0.130096	-0.147375	-0.0279741	-0.0847307	-0.181382	0.148137	0.543158	1.08425	0	0	-0.255688	-0.247388	0.199297	0.691705	0.793352	0	0
0.84	-2.23753	1.39336	-2.48605	0.595093	0.523039	0.955267	0.292635	-0.325484	-0.0928988	1.35356	-0.125848	0	0	0.121402	0.178921	-0.188692	0.461451	0.152009	0	0	-0.134652	-0.142457	-0.0404556	-0.0858117	-0.180666	0.143231	0.539672	1.08473	0	0	-0.248703	-0.25007	0.193467	0.699216	0.796882	0	0
0.85	-2.26018	1.39449	-2.45167	0.593642	0.533098	0.957006	0.305716	-0.325469	-0.106018	1.33958	-0.114623	0	0	0.0952218	0.178802	-0.176726	0.44303	0.155512	0	0	-0.139645	-0.137441	-0.0529906	-0.0866175	-0.179706	0.137545	0.535693	1.08438	0	0	-0.241729	-0.252535	0.186469	0.707559	0.801433	0	0
0.86	-2.28146	1.39572	-2.41903	0.592266	0.543003	0.95846	0.318732	-0.325936	-0.119504	1.32311	-0.103236	0	0	0.0706897	0.177932	-0.164989	0.426573	0.159637	0	0	-0.144367	-0.13242	-0.0648083	-0.0872394	-0.179181	0.133763	0.531815	1.08232	0	0	-0.233895	-0.255162	0.181336	0.715144	0.805581	0	0
0.87	-2.30104	1.39707	-2.38832	0.59094	0.552727	0.959645	0.331347	-0.326627	-0.133289	1.30374	-0.0913764	0	0	0.0480275	0.176462	-0.153154	0.412328	0.164283	0	0	-0.148961	-0.127385	-0.0759701	-0.088052	-0.178895	0.130318	0.528886	1.07896	0	0	-0.224936	-0.257839	0.177363	0.722162	0.809013	0	0
0.88	-2.31844	1.39864	-2.35938	0.589654	0.562387	0.960578	0.343143	-0.327549	-0.1479	1.28163	-0.077801	0	0	0.0268188	0.174393	-0.141297	0.399429	0.169377	0	0	-0.153082	-0.122376	-0.0872473	-0.0893102	-0.178519	0.126989	0.526722	1.07394	0	0	-0.215097	-0.260795	0.175215	0.728191	0.81212	0	0
0.89	-2.33263	1.40025	-2.33502	0.588518	0.57193	0.961244	0.355411	-0.328401	-0.161074	1.25745	-0.0631697	0	0	0.00735856	0.17198	-0.131714	0.388099	0.175122	0	0	-0.15658	-0.117826	-0.0968043	-0.0905954	-0.178518	0.12558	0.524986	1.06688	0	0	-0.204204	-0.263632	0.173782	0.733388	0.814419	0	0
0.9	-2.34837	1.40071	-2.30962	0.587446	0.581435	0.961878	0.365178	-0.329956	-0.174744	1.23012	-0.048099	0	0	-0.0146232	0.170569	-0.119536	0.373264	0.179624	0	0	-0.161526	-0.113737	-0.104682	-0.0900062	-0.172315	0.0919184	0.514834	1.12288	0	0	-0.190932	-0.265376	0.171546	0.734827	0.832814	0	0
